<?xml version="1.0" encoding="UTF-8" standalone="no"?>
<!DOCTYPE svg PUBLIC "-//W3C//DTD SVG 1.1//EN"
 "http://www.w3.org/Graphics/SVG/1.1/DTD/svg11.dtd">
<!-- Generated by graphviz version 2.49.3 (20211023.0002)
 -->
<!-- Pages: 1 -->
<svg width="194pt" height="227pt"
 viewBox="0.00 0.00 194.00 227.00" xmlns="http://www.w3.org/2000/svg" xmlns:xlink="http://www.w3.org/1999/xlink">
<g id="graph0" class="graph" transform="scale(1 1) rotate(0) translate(4 223)">
<polygon fill="white" stroke="transparent" points="-4,4 -4,-223 190,-223 190,4 -4,4"/>
<!-- 5 -->
<g id="node1" class="node">
<title>5</title>
<ellipse fill="yellow" stroke="black" cx="26.79" cy="-32.06" rx="18" ry="18"/>
<ellipse fill="none" stroke="black" cx="26.79" cy="-32.06" rx="22" ry="22"/>
<text text-anchor="middle" x="26.79" y="-28.36" font-family="Times New Roman,serif" font-size="14.00">5</text>
</g>
<!-- 4 -->
<g id="node2" class="node">
<title>4</title>
<ellipse fill="yellow" stroke="black" cx="21.65" cy="-90.16" rx="18" ry="18"/>
<ellipse fill="none" stroke="black" cx="21.65" cy="-90.16" rx="22" ry="22"/>
<text text-anchor="middle" x="21.65" y="-86.46" font-family="Times New Roman,serif" font-size="14.00">4</text>
</g>
<!-- 5&#45;&gt;4 -->
<g id="edge1" class="edge">
<title>5&#45;&gt;4</title>
<path fill="none" stroke="black" d="M24.85,-54.02C24.73,-55.33 24.62,-56.65 24.5,-57.98"/>
<polygon fill="black" stroke="black" points="20.99,-57.89 23.6,-68.16 27.96,-58.51 20.99,-57.89"/>
</g>
<!-- 1 -->
<g id="node3" class="node">
<title>1</title>
<ellipse fill="yellow" stroke="black" cx="90.51" cy="-87.65" rx="18" ry="18"/>
<ellipse fill="none" stroke="black" cx="90.51" cy="-87.65" rx="22" ry="22"/>
<text text-anchor="middle" x="90.51" y="-83.95" font-family="Times New Roman,serif" font-size="14.00">1</text>
</g>
<!-- 5&#45;&gt;1 -->
<g id="edge2" class="edge">
<title>5&#45;&gt;1</title>
<path fill="none" stroke="black" d="M43.53,-46.66C50.36,-52.62 58.39,-59.62 65.86,-66.14"/>
<polygon fill="black" stroke="black" points="63.83,-69.01 73.66,-72.95 68.43,-63.73 63.83,-69.01"/>
</g>
<!-- 6 -->
<g id="node4" class="node">
<title>6</title>
<ellipse fill="yellow" stroke="black" cx="163.72" cy="-139.95" rx="18" ry="18"/>
<ellipse fill="none" stroke="black" cx="163.72" cy="-139.95" rx="22" ry="22"/>
<text text-anchor="middle" x="163.72" y="-136.25" font-family="Times New Roman,serif" font-size="14.00">6</text>
</g>
<!-- 6&#45;&gt;1 -->
<g id="edge3" class="edge">
<title>6&#45;&gt;1</title>
<path fill="none" stroke="black" d="M145.62,-127.02C137,-120.86 126.52,-113.37 117.02,-106.58"/>
<polygon fill="black" stroke="black" points="118.83,-103.57 108.66,-100.61 114.76,-109.27 118.83,-103.57"/>
</g>
<!-- 2 -->
<g id="node5" class="node">
<title>2</title>
<ellipse fill="yellow" stroke="black" cx="123.98" cy="-196.69" rx="18" ry="18"/>
<ellipse fill="none" stroke="black" cx="123.98" cy="-196.69" rx="22" ry="22"/>
<text text-anchor="middle" x="123.98" y="-192.99" font-family="Times New Roman,serif" font-size="14.00">2</text>
</g>
<!-- 6&#45;&gt;2 -->
<g id="edge4" class="edge">
<title>6&#45;&gt;2</title>
<path fill="none" stroke="black" d="M150.93,-158.21C148.3,-161.96 145.49,-165.98 142.71,-169.95"/>
<polygon fill="black" stroke="black" points="139.62,-168.26 136.75,-178.46 145.35,-172.27 139.62,-168.26"/>
</g>
<!-- 7 -->
<g id="node6" class="node">
<title>7</title>
<ellipse fill="yellow" stroke="black" cx="76.14" cy="-142.18" rx="18" ry="18"/>
<ellipse fill="none" stroke="black" cx="76.14" cy="-142.18" rx="22" ry="22"/>
<text text-anchor="middle" x="76.14" y="-138.48" font-family="Times New Roman,serif" font-size="14.00">7</text>
</g>
<!-- 7&#45;&gt;2 -->
<g id="edge6" class="edge">
<title>7&#45;&gt;2</title>
<path fill="none" stroke="black" d="M90.75,-158.83C94.55,-163.17 98.73,-167.92 102.79,-172.55"/>
<polygon fill="black" stroke="black" points="100.23,-174.93 109.45,-180.14 105.49,-170.32 100.23,-174.93"/>
</g>
<!-- 3 -->
<g id="node7" class="node">
<title>3</title>
<ellipse fill="yellow" stroke="black" cx="158.57" cy="-78.33" rx="18" ry="18"/>
<ellipse fill="none" stroke="black" cx="158.57" cy="-78.33" rx="22" ry="22"/>
<text text-anchor="middle" x="158.57" y="-74.63" font-family="Times New Roman,serif" font-size="14.00">3</text>
</g>
<!-- 7&#45;&gt;3 -->
<g id="edge5" class="edge">
<title>7&#45;&gt;3</title>
<path fill="none" stroke="black" d="M93.62,-128.64C105.09,-119.75 120.29,-107.98 133.1,-98.06"/>
<polygon fill="black" stroke="black" points="135.35,-100.74 141.11,-91.85 131.07,-95.21 135.35,-100.74"/>
</g>
<!-- 8 -->
<g id="node8" class="node">
<title>8</title>
<ellipse fill="yellow" stroke="black" cx="96.79" cy="-22.06" rx="18" ry="18"/>
<ellipse fill="none" stroke="black" cx="96.79" cy="-22.06" rx="22" ry="22"/>
<text text-anchor="middle" x="96.79" y="-18.36" font-family="Times New Roman,serif" font-size="14.00">8</text>
</g>
<!-- 8&#45;&gt;4 -->
<g id="edge7" class="edge">
<title>8&#45;&gt;4</title>
<path fill="none" stroke="black" d="M80.49,-36.84C70.32,-46.05 57.05,-58.08 45.68,-68.38"/>
<polygon fill="black" stroke="black" points="43.24,-65.87 38.18,-75.18 47.94,-71.05 43.24,-65.87"/>
</g>
<!-- 8&#45;&gt;3 -->
<g id="edge8" class="edge">
<title>8&#45;&gt;3</title>
<path fill="none" stroke="black" d="M113.35,-37.14C119.86,-43.07 127.46,-49.99 134.55,-56.45"/>
<polygon fill="black" stroke="black" points="132.22,-59.06 141.97,-63.21 136.93,-53.89 132.22,-59.06"/>
</g>
</g>
</svg>
