<?xml version="1.0" encoding="UTF-8" standalone="no"?>
<!DOCTYPE svg PUBLIC "-//W3C//DTD SVG 1.1//EN"
 "http://www.w3.org/Graphics/SVG/1.1/DTD/svg11.dtd">
<!-- Generated by graphviz version 2.49.3 (20211023.0002)
 -->
<!-- Pages: 1 -->
<svg width="108pt" height="106pt"
 viewBox="0.00 0.00 108.00 106.00" xmlns="http://www.w3.org/2000/svg" xmlns:xlink="http://www.w3.org/1999/xlink">
<g id="graph0" class="graph" transform="scale(1 1) rotate(0) translate(4 102)">
<polygon fill="white" stroke="transparent" points="-4,4 -4,-102 104,-102 104,4 -4,4"/>
<!-- 2 -->
<g id="node1" class="node">
<title>2</title>
<ellipse fill="yellow" stroke="black" cx="22.23" cy="-22.74" rx="18" ry="18"/>
<ellipse fill="none" stroke="black" cx="22.23" cy="-22.74" rx="22" ry="22"/>
<text text-anchor="middle" x="22.23" y="-19.04" font-family="Times New Roman,serif" font-size="14.00">2</text>
</g>
<!-- 1 -->
<g id="node2" class="node">
<title>1</title>
<ellipse fill="yellow" stroke="black" cx="24.48" cy="-75.97" rx="18" ry="18"/>
<ellipse fill="none" stroke="black" cx="24.48" cy="-75.97" rx="22" ry="22"/>
<text text-anchor="middle" x="24.48" y="-72.27" font-family="Times New Roman,serif" font-size="14.00">1</text>
</g>
<!-- 2&#45;&gt;1 -->
<g id="edge1" class="edge">
<title>2&#45;&gt;1</title>
<path fill="none" stroke="black" d="M23.17,-45C23.18,-45.1 23.18,-45.19 23.18,-45.28"/>
<polygon fill="black" stroke="black" points="19.63,-44.12 23.55,-53.96 26.63,-43.82 19.63,-44.12"/>
</g>
<!-- 3 -->
<g id="node3" class="node">
<title>3</title>
<ellipse fill="yellow" stroke="black" cx="75.51" cy="-22.02" rx="18" ry="18"/>
<ellipse fill="none" stroke="black" cx="75.51" cy="-22.02" rx="22" ry="22"/>
<text text-anchor="middle" x="75.51" y="-18.32" font-family="Times New Roman,serif" font-size="14.00">3</text>
</g>
<!-- 3&#45;&gt;2 -->
<g id="edge3" class="edge">
<title>3&#45;&gt;2</title>
<path fill="none" stroke="black" d="M53.22,-22.32C53.13,-22.32 53.04,-22.32 52.94,-22.32"/>
<polygon fill="black" stroke="black" points="54.21,-18.81 44.26,-22.44 54.3,-25.81 54.21,-18.81"/>
</g>
<!-- 3&#45;&gt;1 -->
<g id="edge2" class="edge">
<title>3&#45;&gt;1</title>
<path fill="none" stroke="black" d="M60.2,-38.21C55.96,-42.69 51.27,-47.64 46.72,-52.45"/>
<polygon fill="black" stroke="black" points="44.11,-50.12 39.78,-59.79 49.19,-54.93 44.11,-50.12"/>
</g>
<!-- 4 -->
<g id="node4" class="node">
<title>4</title>
<ellipse fill="yellow" stroke="black" cx="77.75" cy="-75.25" rx="18" ry="18"/>
<ellipse fill="none" stroke="black" cx="77.75" cy="-75.25" rx="22" ry="22"/>
<text text-anchor="middle" x="77.75" y="-71.55" font-family="Times New Roman,serif" font-size="14.00">4</text>
</g>
<!-- 4&#45;&gt;2 -->
<g id="edge6" class="edge">
<title>4&#45;&gt;2</title>
<path fill="none" stroke="black" d="M61.69,-60.06C56.79,-55.42 51.28,-50.22 45.98,-45.2"/>
<polygon fill="black" stroke="black" points="48.12,-42.4 38.45,-38.07 43.31,-47.49 48.12,-42.4"/>
</g>
<!-- 4&#45;&gt;1 -->
<g id="edge5" class="edge">
<title>4&#45;&gt;1</title>
<path fill="none" stroke="black" d="M55.47,-75.55C55.37,-75.55 55.28,-75.55 55.19,-75.55"/>
<polygon fill="black" stroke="black" points="56.45,-72.04 46.5,-75.67 56.55,-79.04 56.45,-72.04"/>
</g>
<!-- 4&#45;&gt;3 -->
<g id="edge4" class="edge">
<title>4&#45;&gt;3</title>
<path fill="none" stroke="black" d="M76.81,-52.98C76.81,-52.89 76.8,-52.8 76.8,-52.71"/>
<polygon fill="black" stroke="black" points="80.35,-53.87 76.43,-44.03 73.36,-54.16 80.35,-53.87"/>
</g>
</g>
</svg>
