<?xml version="1.0" encoding="UTF-8" standalone="no"?>
<!DOCTYPE svg PUBLIC "-//W3C//DTD SVG 1.1//EN"
 "http://www.w3.org/Graphics/SVG/1.1/DTD/svg11.dtd">
<!-- Generated by graphviz version 2.49.3 (20211023.0002)
 -->
<!-- Pages: 1 -->
<svg width="105pt" height="109pt"
 viewBox="0.00 0.00 105.00 109.00" xmlns="http://www.w3.org/2000/svg" xmlns:xlink="http://www.w3.org/1999/xlink">
<g id="graph0" class="graph" transform="scale(1 1) rotate(0) translate(4 105)">
<polygon fill="white" stroke="transparent" points="-4,4 -4,-105 101,-105 101,4 -4,4"/>
<!-- 2 -->
<g id="node1" class="node">
<title>2</title>
<ellipse fill="yellow" stroke="black" cx="22.23" cy="-22.44" rx="18" ry="18"/>
<ellipse fill="none" stroke="black" cx="22.23" cy="-22.44" rx="22" ry="22"/>
<text text-anchor="middle" x="22.23" y="-18.74" font-family="Times New Roman,serif" font-size="14.00">2</text>
</g>
<!-- 1 -->
<g id="node2" class="node">
<title>1</title>
<ellipse fill="yellow" stroke="black" cx="22.65" cy="-75.23" rx="18" ry="18"/>
<ellipse fill="none" stroke="black" cx="22.65" cy="-75.23" rx="22" ry="22"/>
<text text-anchor="middle" x="22.65" y="-71.53" font-family="Times New Roman,serif" font-size="14.00">1</text>
</g>
<!-- 2&#45;&gt;1 -->
<g id="edge1" class="edge">
<title>2&#45;&gt;1</title>
<path fill="none" stroke="black" d="M22.4,-44.52C22.4,-44.61 22.41,-44.7 22.41,-44.78"/>
<polygon fill="black" stroke="black" points="18.89,-43.09 22.47,-53.06 25.89,-43.04 18.89,-43.09"/>
</g>
<!-- 3 -->
<g id="node3" class="node">
<title>3</title>
<ellipse fill="yellow" stroke="black" cx="74.9" cy="-25.98" rx="18" ry="18"/>
<ellipse fill="none" stroke="black" cx="74.9" cy="-25.98" rx="22" ry="22"/>
<text text-anchor="middle" x="74.9" y="-22.28" font-family="Times New Roman,serif" font-size="14.00">3</text>
</g>
<!-- 3&#45;&gt;2 -->
<g id="edge2" class="edge">
<title>3&#45;&gt;2</title>
<path fill="none" stroke="black" d="M52.87,-24.5C52.78,-24.49 52.69,-24.49 52.61,-24.48"/>
<polygon fill="black" stroke="black" points="54.56,-21.1 44.34,-23.92 54.09,-28.09 54.56,-21.1"/>
</g>
<!-- 4 -->
<g id="node4" class="node">
<title>4</title>
<ellipse fill="yellow" stroke="black" cx="75.32" cy="-78.77" rx="18" ry="18"/>
<ellipse fill="none" stroke="black" cx="75.32" cy="-78.77" rx="22" ry="22"/>
<text text-anchor="middle" x="75.32" y="-75.07" font-family="Times New Roman,serif" font-size="14.00">4</text>
</g>
<!-- 4&#45;&gt;1 -->
<g id="edge4" class="edge">
<title>4&#45;&gt;1</title>
<path fill="none" stroke="black" d="M53.29,-77.29C53.2,-77.28 53.11,-77.28 53.02,-77.27"/>
<polygon fill="black" stroke="black" points="54.97,-73.89 44.76,-76.71 54.5,-80.88 54.97,-73.89"/>
</g>
<!-- 4&#45;&gt;3 -->
<g id="edge3" class="edge">
<title>4&#45;&gt;3</title>
<path fill="none" stroke="black" d="M75.14,-56.69C75.14,-56.6 75.14,-56.51 75.14,-56.42"/>
<polygon fill="black" stroke="black" points="78.66,-58.12 75.08,-48.14 71.66,-58.17 78.66,-58.12"/>
</g>
</g>
</svg>
